<?xml version="1.0" encoding="utf-8"?>
<!-- Generator: Adobe Illustrator 18.1.1, SVG Export Plug-In . SVG Version: 6.00 Build 0)  -->
<svg version="1.1" id="Layer_1" xmlns="http://www.w3.org/2000/svg" xmlns:xlink="http://www.w3.org/1999/xlink" x="0px" y="0px"
	 viewBox="125 -12 329 71.8" enable-background="new 125 -12 329 71.8" xml:space="preserve">
<path fill="#FFFFFF" d="M157.09,59.8C137.29,59.8,125,45.46,125,22.38C125,2.14,138.31-12,157.38-12
	c19.35,0,31.37,13.78,31.37,35.97C188.75,45.73,176.32,59.8,157.09,59.8 M157.38-8.17c-16.74,0-27.98,12.28-27.98,30.55
	c0,21.44,9.93,33.73,27.26,33.73c17.35,0,27.7-11.8,27.7-31.56C184.35,3.76,174.52-8.17,157.38-8.17"/>
<path fill="#FFFFFF" d="M222.1,59.8c-11.31,0-18.2-3.52-23.03-11.77l-0.06,7.32c0,1.51-0.74,2.42-1.98,2.42
	c-1.35,0-2.12-0.88-2.12-2.42V36.41c0-1.54,0.77-2.42,2.12-2.42c1.92,0,2,1.06,2.27,4.56c0.84,10.26,10.1,17.42,22.51,17.42
	c13.15,0,21.64-6.31,21.64-16.09c0-3.43-1.28-6.46-3.61-8.52c-2.75-2.61-5.7-3.7-12.62-4.68l-9.37-1.45
	c-14.78-2.18-21.66-7.86-21.66-17.89C196.2-4.05,206.32-12,220.8-12c9.56,0,16.73,3.31,21.3,9.83l0.06-5.39
	c0-1.52,0.74-2.42,1.98-2.42c1.35,0,2.13,0.88,2.13,2.42v17.64c0,1.54-0.77,2.42-2.13,2.42c-0.6,0-1.98-0.25-1.98-2.57
	c0.06-4.93-1.51-9.17-4.56-12.27c-3.76-3.82-9.57-5.84-16.79-5.84c-12,0-20.06,6.12-20.06,15.22c0,7.28,5.61,12.07,15.79,13.49
	l8.5,1.15c11.46,1.75,15.6,3.39,19.26,7.65c2.45,3.23,3.7,6.78,3.7,10.53C247.99,51.79,237.59,59.8,222.1,59.8"/>
<path fill="#B9002D" d="M283.38,59.8c-19.46,0-31.08-13.18-31.08-35.25C252.3,2,264.04-12,282.95-12c10.72,0,19.1,4.77,23.6,13.42
	l0.06-8.68c0-1.52,0.74-2.42,1.98-2.42c1.35,0,2.12,0.88,2.12,2.42v21.11c0,1.54-0.78,2.42-2.12,2.42c-1.68,0-2.13-1.29-2.41-3.82
	C305.2-0.27,296.4-8.17,283.23-8.17c-15.88,0-26.54,12.91-26.54,32.14c0,8.96,2.43,17.19,6.84,23.19
	c4.57,6.02,10.92,8.95,19.42,8.95c12.22,0,21.11-6.73,22.66-17.15c0.56-3.1,0.89-4.1,2.7-4.1c1.48,0,2.41,1.04,2.41,2.71
	c0,3.84-2.58,9.54-6.29,13.85C299.4,57.06,292.51,59.8,283.38,59.8"/>
<path fill="#B9002D" d="M349,59.8c-19.8,0-32.09-14.34-32.09-37.42c0-20.24,13.31-34.38,32.38-34.38
	c19.35,0,31.37,13.78,31.37,35.97C380.66,45.73,368.23,59.8,349,59.8 M349.29-8.17c-16.74,0-27.98,12.28-27.98,30.55
	c0,21.44,9.94,33.73,27.27,33.73c17.34,0,27.69-11.8,27.69-31.56C376.27,3.76,366.43-8.17,349.29-8.17"/>
<path fill="#B9002D" d="M426.38,57.77c-1.24,0-1.98-0.64-1.98-1.7s0.74-1.7,1.98-1.7h9.36c1.23,0,1.62-0.39,1.62-1.63V11.53
	c0-12.8-7.38-19.85-20.78-19.85c-13.97,0-22.65,9.49-22.65,24.77v36.29c0,1.23,0.4,1.63,1.62,1.63h9.22c1.85,0,2.13,1.06,2.13,1.7
	c0,0.64-0.28,1.7-2.13,1.7h-25.79c-1.24,0-1.98-0.64-1.98-1.7s0.74-1.7,1.98-1.7h9.07c1.23,0,1.62-0.39,1.62-1.63v-57.7
	c0-1.23-0.4-1.63-1.62-1.63h-9.07c-1.24,0-1.98-0.64-1.98-1.7c0-1.06,0.74-1.7,1.98-1.7h12.53c1.65,0,2.41,0.77,2.41,2.42v9.02
	C398.73-7.47,406.57-12,417.3-12c7.24,0,14.02,2.2,18.13,5.89c4.28,3.85,6.19,9.25,6.19,17.5v41.36c0,1.23,0.39,1.63,1.62,1.63h8.79
	c1.24,0,1.98,0.63,1.98,1.7s-0.74,1.7-1.98,1.7L426.38,57.77L426.38,57.77z"/>
</svg>
