<?xml version="1.0" encoding="utf-8"?>
<!-- Generator: Adobe Illustrator 14.0.0, SVG Export Plug-In . SVG Version: 6.00 Build 43363)  -->
<!DOCTYPE svg PUBLIC "-//W3C//DTD SVG 1.1//EN" "http://www.w3.org/Graphics/SVG/1.1/DTD/svg11.dtd">
<svg version="1.1" id="Layer_1" xmlns="http://www.w3.org/2000/svg" xmlns:xlink="http://www.w3.org/1999/xlink" x="0px" y="0px"
	 width="512px" height="512px" viewBox="0 0 512 512" enable-background="new 0 0 512 512" xml:space="preserve">
<path fill="#FFFFFF" d="M426,0H86C38.7,0,0,38.7,0,86v340c0,47.3,38.7,86,86,86h340c47.3,0,86-38.7,86-86V86C512,38.7,473.3,0,426,0
	z M192,416h-64V192h64V416z M160,160c-17.673,0-32-14.327-32-32s14.327-32,32-32s32,14.327,32,32S177.673,160,160,160z M416,416h-64
	V288c0-17.673-14.327-32-32-32s-32,14.327-32,32v128h-64V192h64v39.736C301.199,213.604,321.376,192,344,192
	c39.765,0,72,35.817,72,80V416z"/>
</svg>
